# Blender v2.91.0 OBJ File: 's-13_warhawk.blend'
# www.blender.org
mtllib s-13_warhawk.mtl
o Cube_Cube.001
v 14.773916 -2.312041 0.000000
v 16.663839 -2.185020 0.000000
v 14.773916 2.545309 -0.000000
v 16.663839 2.420560 -0.021564
v 14.773916 0.737115 -0.000000
v 14.773916 -0.730616 0.000000
v -3.297829 0.000000 0.000000
v 16.663839 0.004386 -0.000000
v 1.000000 1.000000 -0.000000
v 1.000000 -1.000000 0.000000
v -2.900493 0.542589 -0.000000
v -2.900493 -0.542589 0.000000
v 10.778423 1.000000 -0.000000
v 10.778423 -1.000000 0.000000
v 16.663839 0.612366 -0.021564
v 16.663839 -0.603595 0.000000
v 14.773916 -0.008090 3.644272
v 16.663839 0.004387 3.608566
v 14.773916 -0.008093 -3.691306
v 16.663839 0.004384 -3.655600
v 14.773916 -0.008092 -0.924514
v 14.773916 -0.008091 0.924514
v 14.773916 -0.730616 0.849027
v 14.773916 -0.730617 -0.849027
v 14.773916 0.737115 -1.000000
v 14.773916 0.737116 1.000000
v 16.663839 0.004385 -0.888808
v 16.663839 0.004386 0.888807
v 10.778423 -0.000000 -1.475221
v 10.778423 0.000000 1.333701
v -2.900493 0.000000 0.698210
v -2.900493 -0.000000 -0.698210
v 1.000000 -0.000000 -1.475221
v 1.000000 0.000000 1.333701
v 16.663839 -0.603595 -0.777615
v 16.663839 0.612366 -0.860946
v 16.663839 -0.603595 0.777615
v 16.663839 0.612366 0.817818
v 10.778423 -1.000000 -1.000000
v 10.778423 1.000000 -1.000000
v 10.778423 -1.000000 1.000000
v 10.778423 1.000000 1.000000
v -2.900493 -0.542589 -0.417946
v -2.900493 0.542589 -0.470405
v -2.900493 -0.542589 0.417946
v -2.900493 0.542589 0.470405
v 1.000000 -1.000000 -1.000000
v 1.000000 1.000000 -1.000000
v 1.000000 -1.000000 1.000000
v 1.000000 1.000000 1.000000
vt 0.780983 0.922379
vt 0.688580 0.817662
vt 0.780983 0.811452
vt 0.799260 0.815672
vt 0.904922 0.919623
vt 0.799260 0.926597
vt 0.256710 0.853903
vt 0.246520 0.905447
vt 0.226627 0.857820
vt 0.202876 0.874524
vt 0.031250 0.739224
vt 0.080608 0.693418
vt 0.280316 0.635614
vt 0.280316 0.865115
vt 0.106226 0.567209
vt 0.049160 0.491969
vt 0.124357 0.509509
vt 1.000000 0.281535
vt 0.420544 0.221594
vt 1.000000 0.221205
vt 0.940380 0.602411
vt 0.353809 0.538077
vt 0.940720 0.541525
vt 0.058612 0.157610
vt 0.050657 0.110330
vt 0.086307 0.146595
vt 0.000000 0.235847
vt 0.050392 0.246550
vt 0.099193 0.120227
vt 0.078507 0.086101
vt 0.193692 0.902199
vt 0.349667 0.598460
vt 0.417396 0.280884
vt 0.183551 0.206809
vt 0.799260 0.806607
vt 0.909940 0.649424
vt 0.909940 0.808698
vt 0.799260 0.809361
vt 0.688580 0.649424
vt 0.799260 0.647333
vt 0.417018 0.038035
vt 0.186257 0.118726
vt 0.177325 0.059530
vt 0.355814 0.472395
vt 0.126251 0.468117
vt 0.420915 0.159727
vt 0.183407 0.163193
vt 0.350813 0.346845
vt 0.123602 0.427908
vt 0.109237 0.378706
vt 0.419926 0.097357
vt 0.354791 0.407031
vt 0.999869 0.158046
vt 0.999616 0.094706
vt 0.491891 0.905074
vt 0.500263 0.851404
vt 0.526471 0.864366
vt 0.392538 0.658783
vt 0.459749 0.638116
vt 0.940916 0.473926
vt 0.940916 0.406327
vt 0.000000 0.470261
vt 0.013261 0.511373
vt 0.047264 0.448740
vt 0.013987 0.428615
vt 0.094468 0.245137
vt 0.048492 0.470622
vt 0.999322 0.035156
vt 0.940828 0.345989
vt 0.280316 0.733975
vt 0.447831 0.875848
vt 0.438834 0.900573
vt 0.526471 0.635614
vt 0.471742 0.857710
vt 0.330398 0.689649
vt 0.213681 0.637987
vt 0.143917 0.658059
vt 0.688580 0.928590
vt 0.904922 0.808698
vt 0.027211 0.138415
vt 0.178581 0.257441
vt 0.799260 0.647333
vt 0.688580 0.811452
vn 0.0000 -0.0000 1.0000
vn -0.0114 0.0000 -0.9999
vn -0.8421 -0.2475 -0.4792
vn -0.1165 0.9932 -0.0000
vn -0.1165 -0.9932 0.0000
vn 0.0659 0.9978 -0.0000
vn 0.0000 -1.0000 0.0000
vn 0.0000 1.0000 -0.0000
vn 1.0000 0.0000 0.0000
vn 0.0671 -0.9977 0.0000
vn -0.8068 0.5908 -0.0000
vn 0.0657 0.9978 -0.0000
vn 0.0673 -0.9977 0.0000
vn -0.0066 1.0000 -0.0000
vn 0.1357 -0.0998 -0.9857
vn 0.1011 -0.1034 0.9895
vn 0.0208 0.3165 0.9484
vn 0.0629 -0.4284 -0.9014
vn 0.0000 0.3165 0.9486
vn -0.1682 0.3816 -0.9089
vn -0.1637 0.3123 0.9358
vn 0.0000 -0.4292 -0.9032
vn 0.0445 -0.1038 -0.9936
vn 0.0889 -0.1004 0.9910
vn 0.0198 -0.1799 0.9835
vn 0.0186 0.0458 -0.9988
vn 0.0000 0.4292 -0.9032
vn -0.1527 -0.3128 0.9374
vn -0.8421 -0.2475 0.4792
vn -0.1771 -0.4224 -0.8889
vn 0.0000 -0.3165 0.9486
vn -0.8068 -0.5908 0.0000
vn -0.8510 0.2033 -0.4843
vn 0.0282 0.4290 -0.9028
vn 0.0571 -0.3160 0.9470
vn 0.1012 -0.1003 0.9898
vn 0.1356 -0.1030 -0.9854
vn -0.1771 0.4224 -0.8889
vn -0.8510 0.2033 0.4843
vn -0.1486 0.3828 0.9118
vn 0.0198 -0.1799 -0.9835
vn 0.0180 0.1160 0.9931
vn 0.0445 -0.1038 0.9936
vn 0.0664 -0.1006 -0.9927
vn -0.1832 -0.4512 0.8734
vn -0.1832 -0.4512 -0.8734
usemtl Material
s off
f 6/1/1 2/2/1 16/3/1
f 5/4/2 4/5/2 15/6/2
f 43/7/3 7/8/3 32/9/3
f 44/10/4 9/11/4 48/12/4
f 43/7/5 10/13/5 12/14/5
f 5/15/6 36/16/6 25/17/6
f 10/18/7 41/19/7 49/20/7
f 9/21/8 40/22/8 48/23/8
f 37/24/9 8/25/9 28/26/9
f 6/27/10 37/24/10 23/28/10
f 38/29/9 8/25/9 15/30/9
f 44/10/11 7/8/11 11/31/11
f 13/32/12 25/17/12 40/22/12
f 14/33/13 23/34/13 41/19/13
f 22/35/14 18/36/14 28/37/14
f 21/38/14 20/39/14 19/40/14
f 13/41/12 26/42/12 5/43/12
f 29/44/15 25/17/15 21/45/15
f 30/46/16 23/34/16 22/47/16
f 14/48/13 24/49/13 6/50/13
f 30/46/17 26/42/17 42/51/17
f 29/44/18 24/49/18 39/52/18
f 34/53/19 42/51/19 50/54/19
f 48/12/20 32/9/20 44/10/20
f 7/55/11 46/56/11 11/57/11
f 46/56/21 34/58/21 50/59/21
f 33/60/22 39/52/22 47/61/22
f 8/62/9 36/16/9 15/63/9
f 21/45/23 35/64/23 24/49/23
f 22/47/24 38/29/24 26/42/24
f 6/50/10 35/64/10 16/65/10
f 22/66/25 37/24/25 28/26/25
f 21/45/26 36/16/26 27/67/26
f 8/62/9 35/64/9 27/67/9
f 48/23/27 29/44/27 33/60/27
f 50/54/8 13/41/8 9/68/8
f 47/61/7 14/48/7 10/69/7
f 5/43/6 38/29/6 15/30/6
f 10/70/5 45/71/5 12/72/5
f 9/73/4 46/56/4 50/59/4
f 31/74/28 49/75/28 34/58/28
f 7/55/29 45/71/29 31/74/29
f 47/76/30 32/9/30 33/77/30
f 49/20/31 30/46/31 34/53/31
f 6/1/1 1/78/1 2/2/1
f 5/4/2 3/79/2 4/5/2
f 43/7/32 12/14/32 7/8/32
f 44/10/4 11/31/4 9/11/4
f 43/7/5 47/76/5 10/13/5
f 5/15/6 15/63/6 36/16/6
f 10/18/7 14/33/7 41/19/7
f 9/21/8 13/32/8 40/22/8
f 37/24/9 16/80/9 8/25/9
f 6/27/10 16/80/10 37/24/10
f 38/29/9 28/26/9 8/25/9
f 44/10/33 32/9/33 7/8/33
f 13/32/12 5/15/12 25/17/12
f 14/33/13 6/81/13 23/34/13
f 22/35/14 17/82/14 18/36/14
f 21/38/14 27/83/14 20/39/14
f 13/41/12 42/51/12 26/42/12
f 29/44/34 40/22/34 25/17/34
f 30/46/35 41/19/35 23/34/35
f 14/48/13 39/52/13 24/49/13
f 30/46/36 22/47/36 26/42/36
f 29/44/37 21/45/37 24/49/37
f 34/53/19 30/46/19 42/51/19
f 48/12/38 33/77/38 32/9/38
f 7/55/39 31/74/39 46/56/39
f 46/56/40 31/74/40 34/58/40
f 33/60/22 29/44/22 39/52/22
f 8/62/9 27/67/9 36/16/9
f 21/45/41 27/67/41 35/64/41
f 22/47/42 28/26/42 38/29/42
f 6/50/10 24/49/10 35/64/10
f 22/66/43 23/28/43 37/24/43
f 21/45/44 25/17/44 36/16/44
f 8/62/9 16/65/9 35/64/9
f 48/23/27 40/22/27 29/44/27
f 50/54/8 42/51/8 13/41/8
f 47/61/7 39/52/7 14/48/7
f 5/43/6 26/42/6 38/29/6
f 10/70/5 49/75/5 45/71/5
f 9/73/4 11/57/4 46/56/4
f 31/74/45 45/71/45 49/75/45
f 7/55/32 12/72/32 45/71/32
f 47/76/46 43/7/46 32/9/46
f 49/20/31 41/19/31 30/46/31
